<?xml version="1.0" encoding="UTF-8"?>
<svg width="43px" height="37px" viewBox="0 0 43 37" version="1.1" xmlns="http://www.w3.org/2000/svg" xmlns:xlink="http://www.w3.org/1999/xlink">
    <!-- Generator: Sketch 43.1 (39012) - http://www.bohemiancoding.com/sketch -->
    <title>Combined Shape</title>
    <desc>Created with Sketch.</desc>
    <defs></defs>
    <g id="Welcome" stroke="none" stroke-width="1" fill="none" fill-rule="evenodd">
        <g id="Artboard" transform="translate(-327.000000, -173.000000)" fill="#ccc">
            <path d="M327,175.998336 C327,174.342401 328.334057,173 330.006586,173 L366.993414,173 C368.653906,173 370,174.334135 370,175.998336 L370,178.540126 C370,180.196061 368.665943,181.538462 366.993414,181.538462 L330.006586,181.538462 C328.346094,181.538462 327,180.204327 327,178.540126 L327,175.998336 Z M327,190.229105 C327,188.57317 328.334057,187.230769 330.006586,187.230769 L366.993414,187.230769 C368.653906,187.230769 370,188.564904 370,190.229105 L370,192.770895 C370,194.42683 368.665943,195.769231 366.993414,195.769231 L330.006586,195.769231 C328.346094,195.769231 327,194.435096 327,192.770895 L327,190.229105 Z M327,204.459874 C327,202.803939 328.334057,201.461538 330.006586,201.461538 L366.993414,201.461538 C368.653906,201.461538 370,202.795673 370,204.459874 L370,207.001664 C370,208.657599 368.665943,210 366.993414,210 L330.006586,210 C328.346094,210 327,208.665865 327,207.001664 L327,204.459874 Z" id="Combined-Shape"></path>
        </g>
    </g>
</svg>
