<?xml version="1.0" encoding="UTF-8"?>
<svg width="32px" height="30px" viewBox="0 0 32 30" version="1.1" xmlns="http://www.w3.org/2000/svg" xmlns:xlink="http://www.w3.org/1999/xlink">
    <!-- Generator: Sketch 43.1 (39012) - http://www.bohemiancoding.com/sketch -->
    <title>Combined Shape</title>
    <desc>Created with Sketch.</desc>
    <defs></defs>
    <g id="Welcome" stroke="none" stroke-width="1" fill="none" fill-rule="evenodd">
        <g id="Artboard" transform="translate(-327.000000, -175.000000)" fill="#D8D8D8">
            <path d="M327,177.5 C327,176.119288 328.120134,175 329.497658,175 L356.502342,175 C357.881761,175 359,176.109662 359,177.5 C359,178.880712 357.879866,180 356.502342,180 L329.497658,180 C328.118239,180 327,178.890338 327,177.5 Z M327,189.730769 C327,188.350057 328.120134,187.230769 329.497658,187.230769 L356.502342,187.230769 C357.881761,187.230769 359,188.340431 359,189.730769 C359,191.111481 357.879866,192.230769 356.502342,192.230769 L329.497658,192.230769 C328.118239,192.230769 327,191.121107 327,189.730769 Z M327,201.961538 C327,200.580827 328.120134,199.461538 329.497658,199.461538 L356.502342,199.461538 C357.881761,199.461538 359,200.571201 359,201.961538 C359,203.34225 357.879866,204.461538 356.502342,204.461538 L329.497658,204.461538 C328.118239,204.461538 327,203.351876 327,201.961538 Z" id="Combined-Shape"></path>
        </g>
    </g>
</svg>