<?xml version="1.0" encoding="UTF-8"?>
<svg width="162px" height="128px" viewBox="0 0 162 128" version="1.1" xmlns="http://www.w3.org/2000/svg" xmlns:xlink="http://www.w3.org/1999/xlink">
    <!-- Generator: Sketch 43.1 (39012) - http://www.bohemiancoding.com/sketch -->
    <title>Group</title>
    <desc>Created with Sketch.</desc>
    <defs>
        <filter x="-5.3%" y="-7.8%" width="113.3%" height="117.2%" filterUnits="objectBoundingBox" id="filter-1">
            <feOffset dx="2" dy="1" in="SourceAlpha" result="shadowOffsetOuter1"></feOffset>
            <feGaussianBlur stdDeviation="3" in="shadowOffsetOuter1" result="shadowBlurOuter1"></feGaussianBlur>
            <feColorMatrix values="0 0 0 0 0.533333333   0 0 0 0 0.533333333   0 0 0 0 0.533333333  0 0 0 0.5 0" type="matrix" in="shadowBlurOuter1" result="shadowMatrixOuter1"></feColorMatrix>
            <feMerge>
                <feMergeNode in="shadowMatrixOuter1"></feMergeNode>
                <feMergeNode in="SourceGraphic"></feMergeNode>
            </feMerge>
        </filter>
        <path d="M45,16 C45,13.2901784 45.3103056,12.3758474 45.3103056,12.3758474 C46.243498,5.54085564 52.6000357,0 59.4977918,0 L90.5022082,0 C97.404548,0 103.739044,5.55600892 104.61438,12.3964854 C104.61438,12.3964854 105,14.8103363 105,16 L131.999672,16 C141.940979,16 150,24.0564999 150,33.9934895 L150,98.0065105 C150,107.94404 141.935349,116 131.999672,116 L18.0003281,116 C8.05902138,116 0,107.9435 0,98.0065105 L0,33.9934895 C0,24.0559596 8.06465149,16 18.0003281,16 L45,16 Z M74.5,97 C91.3446849,97 105,83.3446849 105,66.5 C105,49.6553151 91.3446849,36 74.5,36 C57.6553151,36 44,49.6553151 44,66.5 C44,83.3446849 57.6553151,97 74.5,97 Z" id="path-2"></path>
        <circle id="path-4" cx="75" cy="67" r="20"></circle>
        <filter x="-20.0%" y="-22.5%" width="150.0%" height="150.0%" filterUnits="objectBoundingBox" id="filter-5">
            <feOffset dx="2" dy="1" in="SourceAlpha" result="shadowOffsetOuter1"></feOffset>
            <feGaussianBlur stdDeviation="3" in="shadowOffsetOuter1" result="shadowBlurOuter1"></feGaussianBlur>
            <feColorMatrix values="0 0 0 0 0.533827594   0 0 0 0 0.533827594   0 0 0 0 0.533827594  0 0 0 0.5 0" type="matrix" in="shadowBlurOuter1"></feColorMatrix>
        </filter>
    </defs>
    <g id="Welcome" stroke="none" stroke-width="1" fill="none" fill-rule="evenodd">
        <g id="Artboard" transform="translate(-655.000000, -111.000000)">
            <g id="Group" transform="translate(659.000000, 116.000000)">
                <g id="Group-2">
                    <g id="Oval-16" filter="url(#filter-1)">
                        <mask id="mask-3" fill="white">
                            <use xlink:href="#path-2"></use>
                        </mask>
                        <use id="Combined-Shape" fill="#FFFFFF" xlink:href="#path-2"></use>
                    </g>
                    <g id="Oval-17">
                        <use fill="black" fill-opacity="1" filter="url(#filter-5)" xlink:href="#path-4"></use>
                        <use fill="#FFFFFF" fill-rule="evenodd" xlink:href="#path-4"></use>
                    </g>
                </g>
            </g>
        </g>
    </g>
</svg>