<?xml version="1.0" encoding="UTF-8"?>
<svg width="44px" height="40px" viewBox="0 0 44 40" version="1.1" xmlns="http://www.w3.org/2000/svg" xmlns:xlink="http://www.w3.org/1999/xlink">
    <!-- Generator: Sketch 43.2 (39069) - http://www.bohemiancoding.com/sketch -->
    <title>Combined Shape</title>
    <desc>Created with Sketch.</desc>
    <defs></defs>
    <g id="Page-1" stroke="none" stroke-width="1" fill="none" fill-rule="evenodd">
        <g id="Artboard" transform="translate(-95.000000, -31.000000)" fill="#fff">
            <path d="M105.774659,68.2042235 L95,70 L98.1545445,61.3250027 C96.1521919,58.3110287 95,54.7778365 95,51 C95,39.954305 104.849736,31 117,31 C129.150264,31 139,39.954305 139,51 C139,62.045695 129.150264,71 117,71 C112.899473,71 109.060967,69.9801421 105.774659,68.2042235 Z M107,55 C108.656854,55 110,53.6568542 110,52 C110,50.3431458 108.656854,49 107,49 C105.343146,49 104,50.3431458 104,52 C104,53.6568542 105.343146,55 107,55 Z M117,55 C118.656854,55 120,53.6568542 120,52 C120,50.3431458 118.656854,49 117,49 C115.343146,49 114,50.3431458 114,52 C114,53.6568542 115.343146,55 117,55 Z M127,55 C128.656854,55 130,53.6568542 130,52 C130,50.3431458 128.656854,49 127,49 C125.343146,49 124,50.3431458 124,52 C124,53.6568542 125.343146,55 127,55 Z" id="Combined-Shape"></path>
        </g>
    </g>
</svg>
