<?xml version="1.0" encoding="UTF-8"?>
<svg width="34px" height="34px" viewBox="0 0 34 34" version="1.1" xmlns="http://www.w3.org/2000/svg" xmlns:xlink="http://www.w3.org/1999/xlink">
    <!-- Generator: Sketch 42 (36781) - http://www.bohemiancoding.com/sketch -->
    <title>Group</title>
    <desc>Created with Sketch.</desc>
    <defs></defs>
    <g id="Welcome" stroke="none" stroke-width="1" fill="none" fill-rule="evenodd">
        <g id="Hub---my-music-Copy-13" transform="translate(-26.000000, -10.000000)">
            <g id="Group-2" transform="translate(26.000000, 10.000000)">
                <g id="Group">
                    <circle id="Oval-10" fill="#1596F5" cx="17" cy="17" r="17"></circle>
                    <path d="M19.0983963,13.2995778 L19.0983963,13.2387389 L19.0983963,13.1778999 C19.0983963,12.3875051 19.7338433,11.7467635 20.5300191,11.7467635 C21.3206825,11.7467635 21.9616419,12.380006 21.9616419,13.1778999 L21.9616419,13.3070573 C23.2918777,13.3070574 24.3972194,13.3070574 25.3139409,13.3070573 C25.3324709,13.3070573 25.3508076,13.3073508 25.3689526,13.307925 L21.9616419,13.307925 L21.9616419,23.6683606 L26.9476383,23.6683606 L26.9476383,13.307925 C26.9476383,13.3076359 26.9476383,13.3073467 26.9476383,13.3070573 C26.9476383,9.91096861 24.0743723,7.15789474 20.5300191,7.15789474 C17.0680244,7.15789474 14.2462917,9.78451129 14.1170264,13.0713854 L14.1123999,13.0713854 L14.1123999,15.7819089 L14.1123999,21.595159 L14.1123999,21.655998 L14.1123999,21.716837 C14.1123999,22.5072318 13.4769529,23.1479734 12.6807771,23.1479734 C11.8901137,23.1479734 11.2491544,22.5147308 11.2491544,21.7168369 L11.2491544,21.5876795 C9.91891848,21.5876795 8.81357679,21.5876795 7.8968553,21.5876795 C7.87832531,21.5876795 7.85998866,21.587386 7.84184363,21.5868119 L11.2491544,21.5868119 L11.2491544,11.2263763 L6.26315789,11.2263763 L6.26315789,21.5868119 C6.26315791,21.5871009 6.26315789,21.5873902 6.26315789,21.5876795 C6.26315789,24.9837682 9.13642389,27.7368421 12.6807771,27.7368421 C16.1261463,27.7368421 18.937388,25.1353927 19.0917215,21.8706594 L19.0983963,21.8706594 L19.0983963,13.2995778 Z" id="Combined-Shape" fill="#FFFFFF"></path>
                </g>
            </g>
        </g>
    </g>
</svg>