<?xml version="1.0" encoding="UTF-8"?>
<svg width="32px" height="32px" viewBox="0 0 32 32" version="1.1" xmlns="http://www.w3.org/2000/svg" xmlns:xlink="http://www.w3.org/1999/xlink">
    <!-- Generator: Sketch 43.2 (39069) - http://www.bohemiancoding.com/sketch -->
    <title>Group</title>
    <desc>Created with Sketch.</desc>
    <defs></defs>
    <g id="Symbols" stroke="none" stroke-width="1" fill="none" fill-rule="evenodd">
        <g id="Group">
            <g id="Group-2">
                <circle id="Oval-10" fill="#0089EE" cx="16" cy="16" r="16"></circle>
                <path d="M18.5966582,11.9791237 L18.5966582,11.9216627 L18.5966582,11.8642017 C18.5966582,11.0885555 19.2202936,10.4597701 20.0016701,10.4597701 C20.7776368,10.4597701 21.406682,11.0943102 21.406682,11.8642017 L21.406682,11.9641751 C22.7120042,11.9618939 23.7970549,11.9761683 24.6966688,11.9761682 C24.7148544,11.9761682 24.7328502,11.9764535 24.750658,11.9770115 L21.406682,11.9770115 L21.406682,22.045977 C21.406682,22.045977 23.2664645,22.5217391 23.8533406,22.5217391 C24.4402167,22.5217391 26.2999992,22.045977 26.2999992,22.045977 L26.2999992,11.9770115 C26.2999992,11.9767305 26.2999992,11.9764495 26.2999992,11.9761683 C26.2999992,8.67562167 23.4801412,6 20.0016701,6 C16.6040266,6 13.8347441,8.55272197 13.7078815,11.7471264 L13.703341,11.7471264 L13.703341,14.3813948 L13.703341,20.0311008 L13.703341,20.0834496 L13.703341,20.1357983 C13.703341,20.9114445 13.0797057,21.5402299 12.2983291,21.5402299 C11.5223625,21.5402299 10.8933172,20.9056898 10.8933172,20.1357983 L10.8933172,20.0238317 C9.58780765,20.0238317 8.50301194,20.0238317 7.60333039,20.0238318 C7.58514484,20.0238318 7.56714902,20.0235465 7.54934127,20.0229885 L10.8933172,20.0229885 L10.8933172,9.95402299 C10.8933172,9.95402299 9.31509763,9.47826087 8.44665862,9.47826087 C7.5782196,9.47826087 6,9.95402299 6,9.95402299 L6,20.0229885 C6.00000002,20.0232695 6,20.0235505 6,20.0238317 C6,23.3243783 8.819858,26 12.2983291,26 C15.6796561,26 18.4386427,23.4717371 18.5901074,20.2988506 L18.5966582,20.2988506 L18.5966582,11.9791237 Z" id="Combined-Shape" fill="#FFFFFF"></path>
            </g>
        </g>
    </g>
</svg>