<?xml version="1.0" encoding="UTF-8"?>
<svg width="16px" height="16px" viewBox="0 0 16 16" version="1.1" xmlns="http://www.w3.org/2000/svg" xmlns:xlink="http://www.w3.org/1999/xlink">
    <!-- Generator: Sketch 43.2 (39069) - http://www.bohemiancoding.com/sketch -->
    <title>Combined Shape</title>
    <desc>Created with Sketch.</desc>
    <defs></defs>
    <g id="Page-1" stroke="none" stroke-width="1" fill="none" fill-rule="evenodd" stroke-linejoin="round">
        <g id="1200px-Feed" transform="translate(-745.000000, -762.000000)" stroke="#333333" fill="#333333">
            <g id="Group-18" transform="translate(646.000000, 760.000000)">
                <path d="M112.361308,6.10926167 C111.150337,4.23432156 109.088928,3 106.749544,3 C103.021874,3 100,6.13400675 100,10 C100,13.8659932 103.021874,17 106.749544,17 C109.063504,17 111.105497,15.7923618 112.321525,13.951641 L109.974163,12.5412037 C109.234437,13.5492695 108.065264,14.2 106.749544,14.2 C104.512942,14.2 102.699817,12.3195959 102.699817,10 C102.699817,7.68040405 104.512942,5.8 106.749544,5.8 C108.174284,5.8 109.427184,6.56303593 110.149036,7.71657145 L108.256678,9.09145049 L113.962138,10.9592418 L113.948847,4.9558477 L112.361308,6.10926167 Z" id="Combined-Shape"></path>
            </g>
        </g>
    </g>
</svg>
