<?xml version="1.0" encoding="UTF-8"?>
<svg width="18px" height="17px" viewBox="0 0 18 17" version="1.1" xmlns="http://www.w3.org/2000/svg" xmlns:xlink="http://www.w3.org/1999/xlink">
    <!-- Generator: Sketch 43.2 (39069) - http://www.bohemiancoding.com/sketch -->
    <title>Combined Shape</title>
    <desc>Created with Sketch.</desc>
    <defs></defs>
    <g id="Page-1" stroke="none" stroke-width="1" fill="none" fill-rule="evenodd">
        <g id="1200px-Feed" transform="translate(-746.000000, -767.000000)" stroke="#2E3F52" fill="#2E3F52">
            <path d="M760.737942,771.334678 C759.392628,769.323947 757.100926,768 754.5,768 C750.357864,768 747,771.357864 747,775.5 C747,779.642136 750.357864,783 754.5,783 C757.066664,783 759.332197,781.710704 760.684285,779.744427 L758.104553,778.194368 C757.283831,779.290573 755.974763,780 754.5,780 C752.014719,780 750,777.985281 750,775.5 C750,773.014719 752.014719,771 754.5,771 C756.10313,771 757.510464,771.838302 758.307553,773.100459 L756.231547,774.608765 L762.457694,776.527759 L762.556607,770.01334 L760.737942,771.334678 Z" id="Combined-Shape"></path>
        </g>
    </g>
</svg>