<?xml version="1.0" encoding="UTF-8"?>
<svg width="100px" height="101px" viewBox="0 0 100 101" version="1.1" xmlns="http://www.w3.org/2000/svg" xmlns:xlink="http://www.w3.org/1999/xlink">
    <!-- Generator: Sketch 43.1 (39012) - http://www.bohemiancoding.com/sketch -->
    <title>Combined Shape</title>
    <desc>Created with Sketch.</desc>
    <defs></defs>
    <g id="Welcome" stroke="none" stroke-width="1" fill="none" fill-rule="evenodd">
        <g id="Artboard-6-Copy-2" transform="translate(-297.000000, -230.000000)" fill="#FFFFFF">
            <path d="M396.904905,260.122636 L396.904905,303.286059 C396.997655,303.902783 397.024211,304.528535 396.98006,305.159936 C396.479316,312.320897 387.073166,317.496646 375.970835,316.720295 C364.868504,315.943945 356.274219,309.509482 356.774962,302.348521 C357.275706,295.187561 366.681856,290.011811 377.784187,290.788162 C380.936444,291.008589 383.886515,291.685144 386.483633,292.704948 L386.48363,263.825825 L336.904542,272.49377 L336.904542,316.357922 C337.183181,317.334107 337.296356,318.339277 337.225038,319.359184 C336.724294,326.520145 327.318144,331.695894 316.215813,330.919543 C305.113482,330.143193 296.519197,323.70873 297.01994,316.54777 C297.520684,309.386809 306.926834,304.211059 318.029165,304.98741 C321.08258,305.200926 323.94629,305.842413 326.483269,306.809282 L326.483267,264.452117 L326.483267,248.378444 C326.483267,247.268411 327.348287,246.174111 328.440328,245.928639 L394.950874,230.978246 C396.031729,230.735289 396.907935,231.429335 396.907935,232.530481 L396.907935,260.011189 C396.907935,260.048409 396.906916,260.085568 396.904905,260.122636 Z" id="Combined-Shape"></path>
        </g>
    </g>
</svg>