<?xml version="1.0" encoding="UTF-8"?>
<svg width="21px" height="16px" viewBox="0 0 21 16" version="1.1" xmlns="http://www.w3.org/2000/svg" xmlns:xlink="http://www.w3.org/1999/xlink">
    <!-- Generator: Sketch 43.2 (39069) - http://www.bohemiancoding.com/sketch -->
    <title>Group 22</title>
    <desc>Created with Sketch.</desc>
    <defs>
        <rect id="path-1" x="4.69392096" y="2.66286535" width="6.22907437" height="8.16666667"></rect>
    </defs>
    <g id="Page-1" stroke="none" stroke-width="1" fill="none" fill-rule="evenodd">
        <g id="1200px-Feed" transform="translate(-612.000000, -761.000000)">
            <g id="Group-22" transform="translate(614.000000, 762.000000)">
                <path d="M0,11.3333333 L4.75,11.3333333 C4.75,11.3333333 6.65135951,8.48582595 8.55,5.93800236 C10.4486405,3.39017878 11.108342,2.34111505 12.35,2.34111505 C13.3,2.34111505 13.5024965,2.32360619 14.25,2.34111505" id="Line-Copy" stroke="#333333" stroke-width="3" stroke-linecap="square" stroke-linejoin="round" transform="translate(7.125000, 6.833333) scale(1, -1) translate(-7.125000, -6.833333) "></path>
                <g id="Rectangle-22" transform="translate(7.808458, 6.746199) rotate(38.000000) translate(-7.808458, -6.746199) ">
                    <use fill="#F7F7F7" fill-rule="evenodd" xlink:href="#path-1"></use>
                    <rect stroke="#F7F7F7" stroke-width="1" x="5.19392096" y="3.16286535" width="5.22907437" height="7.16666667"></rect>
                </g>
                <polygon id="Triangle-4-Copy" stroke="#333333" fill="#333333" transform="translate(16.862500, 11.312500) rotate(90.000000) translate(-16.862500, -11.312500) " points="16.8625 9.5625 19.059375 13.0625 14.665625 13.0625"></polygon>
                <polygon id="Triangle-4-Copy-2" stroke="#333333" fill="#333333" transform="translate(16.862500, 2.312500) rotate(90.000000) translate(-16.862500, -2.312500) " points="16.8625 0.5625 19.059375 4.0625 14.665625 4.0625"></polygon>
                <path d="M0,11.3333333 L4.64178174,11.3333333 C4.64178174,11.3333333 6.49982298,8.48582595 8.35520713,5.93800236 C10.2105913,3.39017878 10.855263,2.34111505 12.0686325,2.34111505 C12.9969889,2.34111505 13.194872,2.32360619 13.9253452,2.34111505" id="Line" stroke="#333333" stroke-width="3" stroke-linecap="square" stroke-linejoin="round"></path>
            </g>
        </g>
    </g>
</svg>
