<?xml version="1.0" encoding="UTF-8"?>
<svg width="94px" height="94px" viewBox="0 0 94 94" version="1.1" xmlns="http://www.w3.org/2000/svg" xmlns:xlink="http://www.w3.org/1999/xlink">
    <!-- Generator: Sketch 42 (36781) - http://www.bohemiancoding.com/sketch -->
    <title>Group 7</title>
    <desc>Created with Sketch.</desc>
    <defs></defs>
    <g id="Welcome" stroke="none" stroke-width="1" fill="none" fill-rule="evenodd">
        <g id="Hub---my-music-Copy-14" transform="translate(-509.000000, -102.000000)" stroke="#1596F5" stroke-width="3">
            <g id="Group-7" transform="translate(511.000000, 104.000000)">
                <circle id="Oval-8" cx="45" cy="45" r="45"></circle>
                <path d="M34.2093715,51.2531087 C29.240936,54.8055485 26,60.6400289 26,67.2353524 C26,68.2002691 26.3612745,68.2319935 26.7959184,68.4353524 C27.867615,68.3880727 30.4370489,68.355506 30.7755102,68.4353524 C32.1651435,68.7631805 37.523797,68.4353524 45.5,68.4353524 C52.7731421,68.4353524 56.8920371,68.3176329 60.2244898,68.4353524 C62.3458507,68.5102898 63.4081633,68.4353524 64.2040816,68.4353524 C65,68.4353524 65,68.6900976 65,67.2353524 C65,60.6455862 61.7645234,54.8153813 56.803184,51.2620934 C54.4830584,54.19058 49.3694846,55.4 45.3829242,55.4 C41.5481107,55.4 36.0089732,53.240644 34.2093715,51.2531087 Z" id="Combined-Shape"></path>
                <ellipse id="Oval-12" cx="45.5" cy="36.4" rx="12.3367347" ry="12.4"></ellipse>
            </g>
        </g>
    </g>
</svg>