<?xml version="1.0" encoding="UTF-8"?>
<svg width="96px" height="96px" viewBox="0 0 96 96" version="1.1" xmlns="http://www.w3.org/2000/svg" xmlns:xlink="http://www.w3.org/1999/xlink">
    <!-- Generator: Sketch 42 (36781) - http://www.bohemiancoding.com/sketch -->
    <title>Group 8</title>
    <desc>Created with Sketch.</desc>
    <defs>
        <rect id="path-1" x="0" y="6" width="39" height="19"></rect>
        <mask id="mask-2" maskContentUnits="userSpaceOnUse" maskUnits="objectBoundingBox" x="0" y="0" width="39" height="19" fill="white">
            <use xlink:href="#path-1"></use>
        </mask>
    </defs>
    <g id="Welcome" stroke="none" stroke-width="1" fill="none" fill-rule="evenodd">
        <g id="Hub---my-music-Copy-15" transform="translate(-590.000000, -116.000000)">
            <g id="Group-3" transform="translate(592.000000, 118.000000)">
                <g id="Group-4">
                    <g id="Group-8">
                        <circle id="Oval-6" stroke="#1596F5" stroke-width="3" cx="46" cy="46" r="46"></circle>
                        <g id="Group-7" transform="translate(27.000000, 21.000000)">
                            <ellipse id="Oval-15" stroke="#1596F5" stroke-width="4" fill="#EFF3F5" cx="19.5" cy="14" rx="11.5" ry="14"></ellipse>
                            <g id="Group-6" transform="translate(0.000000, 14.000000)" fill="#1596F5">
                                <use id="Rectangle" stroke="#1596F5" mask="url(#mask-2)" stroke-width="2" xlink:href="#path-1"></use>
                                <path d="M19.6935805,37 C26.1198194,37 32.8773926,34.0326697 36.1935805,30 C39.5097683,25.9673303 38.1935805,25.0738072 38.1935805,22 C38.1935805,13.7157288 29.9108483,7 19.6935805,7 C9.47631259,7 1.19358046,13.7157288 1.19358046,22 C1.19358046,23.0142862 1.00586667,23.877249 1,25 C0.994133326,26.122751 1.04385419,26.4923724 1.19358046,27 C1.6291365,28.4766967 3.0678781,29.7180734 4.19358046,31 C6.34664598,33.4518665 13.4712578,37 19.6935805,37 Z" id="Oval" stroke="#1596F5"></path>
                                <rect id="Rectangle-53" x="0" y="0" width="39" height="11" rx="5.5"></rect>
                                <rect id="Rectangle-53-Copy" x="0" y="19" width="39" height="11" rx="5.5"></rect>
                            </g>
                            <ellipse id="Oval-13" fill="#EFF3F5" cx="20" cy="30" rx="6" ry="6"></ellipse>
                            <rect id="Rectangle-52" fill="#EFF3F5" x="17" y="35" width="6" height="6"></rect>
                        </g>
                    </g>
                </g>
            </g>
        </g>
    </g>
</svg>